<svg class="border shadow-md" viewBox="0 0 932.8 524.7" style="width: 932.8px; height: 524.7px;" xmlns="http://www.w3.org/2000/svg" preserveAspectRatio="none"><rect class="bg" id="bg" x="0" y="0" width="932.8" height="524.7" fill="#ffffff"/><g transform="rotate(0 466.4 262.35)"><path d="M -566.40 -22.47 S -293.20 -57.47&#10;            0.00 -22.47 273.20 -74.47&#10;            566.40 -22.47 755.80 -56.47&#10;            1132.80 -22.47 1406.00 -48.71&#10;            1699.20 -22.47 h 110 V 724.7 H -566.40 Z" fill="#DA6B1A" id="-1"/><path d="M -566.40 30.00 S -355.00 3.76&#10;            0.00 30.00 273.20 -21.00&#10;            566.40 30.00 839.60 2.00&#10;            1132.80 30.00 1313.20 -3.00&#10;            1699.20 30.00 h 110 V 724.7 H -566.40 Z" fill="#c66117" id="0"/><path id="1" d="M -566.40 82.47 S -421.00 39.47&#10;            0.00 82.47 226.40 56.23&#10;            566.40 82.47 792.80 56.23&#10;            1132.80 82.47 1315.20 54.47&#10;            1699.20 82.47 h 110 V 724.7 H -566.40 Z" fill="#b25714"/><path id="2" d="M -566.40 134.94 S -293.20 108.70&#10;            0.00 134.94 229.40 105.94&#10;            566.40 134.94 839.60 108.70&#10;            1132.80 134.94 1406.00 108.70&#10;            1699.20 134.94 h 110 V 724.7 H -566.40 Z" fill="#9e4d11"/><path id="3" d="M -566.40 187.41 S -293.20 145.41&#10;            0.00 187.41 273.20 143.41&#10;            566.40 187.41 585.80 139.41&#10;            1132.80 187.41 1406.00 145.41&#10;            1699.20 187.41 h 110 V 724.7 H -566.40 Z" fill="#8a430e"/><path id="4" d="M -566.40 239.88 S -346.00 208.88&#10;            0.00 239.88 123.40 194.88&#10;            566.40 239.88 839.60 213.65&#10;            1132.80 239.88 1150.20 195.88&#10;            1699.20 239.88 h 110 V 724.7 H -566.40 Z" fill="#76390b"/><path id="5" d="M -566.40 292.35 S -293.20 266.12&#10;            0.00 292.35 273.20 264.35&#10;            566.40 292.35 755.80 258.35&#10;            1132.80 292.35 1406.00 266.12&#10;            1699.20 292.35 h 110 V 724.7 H -566.40 Z" fill="#622f08"/><path id="6" d="M -566.40 344.82 S -337.00 318.59&#10;            0.00 344.82 151.40 318.59&#10;            566.40 344.82 839.60 318.59&#10;            1132.80 344.82 1406.00 317.82&#10;            1699.20 344.82 h 110 V 724.7 H -566.40 Z" fill="#4e2505"/><path id="7" d="M -566.40 397.29 S -574.00 371.06&#10;            0.00 397.29 273.20 371.06&#10;            566.40 397.29 665.80 371.06&#10;            1132.80 397.29 1406.00 371.06&#10;            1699.20 397.29 h 110 V 724.7 H -566.40 Z" fill="#3a1b02"/><path id="8" d="M -566.40 449.76 S -293.20 423.53&#10;            0.00 449.76 143.40 423.53&#10;            566.40 449.76 839.60 409.76&#10;            1132.80 449.76 1170.20 423.53&#10;            1699.20 449.76 h 110 V 724.7 H -566.40 Z" fill="#261100"/><path id="9" d="M -566.40 502.23 S -293.20 474.23&#10;            0.00 502.23 142.40 476.00&#10;            566.40 502.23 779.80 466.23&#10;            1132.80 502.23 1326.20 476.00&#10;            1699.20 502.23 h 110 V 724.7 H -566.40 Z" fill="#120700"/></g></svg>